<svg width="30" height="30" viewBox="0 0 30 30" fill="none" xmlns="http://www.w3.org/2000/svg">
<path d="M8.89258 23.75C7.28841 23.75 5.9905 25.0625 5.9905 26.6667C5.9905 28.2708 7.28841 29.5833 8.89258 29.5833C10.4967 29.5833 11.8092 28.2708 11.8092 26.6667C11.8092 25.0625 10.4967 23.75 8.89258 23.75ZM0.142578 1.87499C0.142578 2.67707 0.798828 3.33332 1.60091 3.33332H3.05924L8.30924 14.4021L6.34049 17.9604C5.27591 19.9146 6.67591 22.2917 8.89258 22.2917H24.9342C25.7363 22.2917 26.3926 21.6354 26.3926 20.8333C26.3926 20.0312 25.7363 19.375 24.9342 19.375H8.89258L10.4967 16.4583H21.3613C22.4551 16.4583 23.4176 15.8604 23.9134 14.9562L29.1342 5.49166C29.6738 4.52916 28.9738 3.33332 27.8655 3.33332H6.28216L5.30508 1.24791C5.07174 0.73749 4.54675 0.416656 3.99258 0.416656H1.60091C0.798828 0.416656 0.142578 1.07291 0.142578 1.87499ZM23.4759 23.75C21.8717 23.75 20.5738 25.0625 20.5738 26.6667C20.5738 28.2708 21.8717 29.5833 23.4759 29.5833C25.0801 29.5833 26.3926 28.2708 26.3926 26.6667C26.3926 25.0625 25.0801 23.75 23.4759 23.75Z" fill="#FE62C4"/>
</svg>
