<svg width="50" height="51" viewBox="0 0 50 51" fill="none" xmlns="http://www.w3.org/2000/svg">
<path d="M6.25 20.9725H43.75M14.5833 31.3892H16.6667M25 31.3892H27.0833M12.5 39.7225H37.5C39.1576 39.7225 40.7473 39.064 41.9194 37.8919C43.0915 36.7198 43.75 35.1301 43.75 33.4725V16.8058C43.75 15.1482 43.0915 13.5585 41.9194 12.3864C40.7473 11.2143 39.1576 10.5558 37.5 10.5558H12.5C10.8424 10.5558 9.25269 11.2143 8.08058 12.3864C6.90848 13.5585 6.25 15.1482 6.25 16.8058V33.4725C6.25 35.1301 6.90848 36.7198 8.08058 37.8919C9.25269 39.064 10.8424 39.7225 12.5 39.7225Z" stroke="#FE62C4" stroke-width="3" stroke-linecap="round" stroke-linejoin="round"/>
</svg>
