<svg width="36" height="37" viewBox="0 0 36 37" fill="none" xmlns="http://www.w3.org/2000/svg">
<path d="M15.177 17.1394L18.7075 13.6084C18.8948 13.4214 18.982 13.1984 18.969 12.9394C18.9563 12.6804 18.8563 12.4574 18.669 12.2704C18.482 12.0831 18.2505 11.9894 17.9745 11.9894C17.6985 11.9894 17.4712 12.0831 17.2925 12.2704L12.554 17.0084C12.2307 17.3317 12.069 17.7087 12.069 18.1394C12.069 18.5701 12.2307 18.9471 12.554 19.2704L17.331 24.0469C17.518 24.2342 17.741 24.3279 18 24.3279C18.259 24.3279 18.482 24.2342 18.669 24.0469C18.8563 23.8599 18.95 23.6284 18.95 23.3524C18.95 23.0761 18.8563 22.8487 18.669 22.6704L15.177 19.1394L24 19.1394C24.2833 19.1394 24.5208 19.0434 24.7125 18.8514C24.9042 18.6594 25 18.4216 25 18.1379C25 17.8542 24.9042 17.6169 24.7125 17.4259C24.5208 17.2349 24.2833 17.1394 24 17.1394L15.177 17.1394ZM17.9935 0.139406C20.4825 0.139406 22.8227 0.611737 25.014 1.5564C27.205 2.50107 29.111 3.78307 30.732 5.40241C32.353 7.02174 33.6362 8.92607 34.5815 11.1154C35.5272 13.3044 36 15.6436 36 18.1329C36 20.6219 35.5277 22.9621 34.583 25.1534C33.6383 27.3444 32.3563 29.2504 30.737 30.8714C29.1177 32.4924 27.2133 33.7756 25.024 34.7209C22.835 35.6666 20.4958 36.1394 18.0065 36.1394C15.5175 36.1394 13.1773 35.6671 10.986 34.7224C8.795 33.7777 6.889 32.4957 5.268 30.8764C3.647 29.2571 2.36383 27.3527 1.4185 25.1634C0.472831 22.9744 -1.35542e-06 20.6352 -1.57304e-06 18.1459C-1.79064e-06 15.6569 0.472334 13.3167 1.417 11.1254C2.36167 8.93441 3.64366 7.02841 5.263 5.40741C6.88233 3.78641 8.78666 2.50324 10.976 1.55791C13.165 0.612238 15.5042 0.139406 17.9935 0.139406ZM18 2.13941C13.5333 2.13941 9.75 3.68941 6.65 6.78941C3.55 9.88941 2 13.6727 2 18.1394C2 22.6061 3.55 26.3894 6.65 29.4894C9.75 32.5894 13.5333 34.1394 18 34.1394C22.4667 34.1394 26.25 32.5894 29.35 29.4894C32.45 26.3894 34 22.6061 34 18.1394C34 13.6727 32.45 9.8894 29.35 6.7894C26.25 3.6894 22.4667 2.13941 18 2.13941Z" fill="#FE62C4"/>
</svg>
