<svg width="36" height="37" viewBox="0 0 36 37" fill="none" xmlns="http://www.w3.org/2000/svg">
<path d="M20.823 19.1389L17.2925 22.6699C17.1052 22.8569 17.018 23.0799 17.031 23.3389C17.0437 23.5979 17.1437 23.8209 17.331 24.0079C17.518 24.1952 17.7495 24.2889 18.0255 24.2889C18.3015 24.2889 18.5288 24.1952 18.7075 24.0079L23.446 19.2699C23.7693 18.9466 23.931 18.5696 23.931 18.1389C23.931 17.7083 23.7693 17.3312 23.446 17.0079L18.669 12.2314C18.482 12.0441 18.259 11.9504 18 11.9504C17.741 11.9504 17.518 12.0441 17.331 12.2314C17.1437 12.4184 17.05 12.6499 17.05 12.9259C17.05 13.2022 17.1437 13.4296 17.331 13.6079L20.823 17.1389H12C11.7167 17.1389 11.4792 17.2349 11.2875 17.4269C11.0958 17.6189 11 17.8568 11 18.1404C11 18.4241 11.0958 18.6614 11.2875 18.8524C11.4792 19.0434 11.7167 19.1389 12 19.1389H20.823ZM18.0065 36.1389C15.5175 36.1389 13.1773 35.6666 10.986 34.7219C8.795 33.7773 6.889 32.4953 5.268 30.8759C3.647 29.2566 2.36383 27.3523 1.4185 25.1629C0.472833 22.9739 0 20.6348 0 18.1454C0 15.6564 0.472333 13.3162 1.417 11.1249C2.36167 8.93392 3.64367 7.02792 5.263 5.40692C6.88233 3.78592 8.78667 2.50275 10.976 1.55742C13.165 0.611749 15.5042 0.138916 17.9935 0.138916C20.4825 0.138916 22.8227 0.611251 25.014 1.55592C27.205 2.50058 29.111 3.78258 30.732 5.40192C32.353 7.02125 33.6362 8.92558 34.5815 11.1149C35.5272 13.3039 36 15.6431 36 18.1324C36 20.6214 35.5277 22.9616 34.583 25.1529C33.6383 27.3439 32.3563 29.2499 30.737 30.8709C29.1177 32.4919 27.2133 33.7751 25.024 34.7204C22.835 35.6661 20.4958 36.1389 18.0065 36.1389ZM18 34.1389C22.4667 34.1389 26.25 32.5889 29.35 29.4889C32.45 26.3889 34 22.6056 34 18.1389C34 13.6722 32.45 9.88892 29.35 6.78892C26.25 3.68892 22.4667 2.13892 18 2.13892C13.5333 2.13892 9.75 3.68892 6.65 6.78892C3.55 9.88892 2 13.6722 2 18.1389C2 22.6056 3.55 26.3889 6.65 29.4889C9.75 32.5889 13.5333 34.1389 18 34.1389Z" fill="#FE62C4"/>
</svg>
