<svg width="12" height="12" viewBox="0 0 12 12" fill="none" xmlns="http://www.w3.org/2000/svg">
<path d="M6.00021 10.848L10.2465 6.60776C10.34 6.51409 10.4537 6.46309 10.5877 6.45476C10.7217 6.44643 10.8438 6.49743 10.954 6.60776C11.0605 6.71409 11.1137 6.83201 11.1137 6.96151C11.1137 7.09101 11.0605 7.20901 10.954 7.31551L6.56571 11.7038C6.47837 11.7909 6.38921 11.8522 6.29821 11.8875C6.20721 11.9228 6.10787 11.9405 6.00021 11.9405C5.89254 11.9405 5.79321 11.9228 5.70221 11.8875C5.61121 11.8522 5.52204 11.7909 5.43471 11.7038L1.04646 7.31551C0.952789 7.22184 0.901789 7.10801 0.893456 6.97401C0.885123 6.84001 0.936122 6.71793 1.04646 6.60776C1.15279 6.50126 1.27071 6.44801 1.40021 6.44801C1.52971 6.44801 1.64762 6.50126 1.75396 6.60776L6.00021 10.848ZM6.00021 4.88651L10.2465 0.64626C10.34 0.552593 10.4537 0.501594 10.5877 0.49326C10.7217 0.484927 10.8438 0.535927 10.954 0.64626C11.0605 0.752593 11.1137 0.870511 11.1137 1.00001C11.1137 1.12951 11.0605 1.24743 10.954 1.35376L6.56571 5.74226C6.47837 5.82943 6.38921 5.89068 6.29821 5.92601C6.20721 5.96118 6.10787 5.97876 6.00021 5.97876C5.89254 5.97876 5.79321 5.96118 5.70221 5.92601C5.61121 5.89068 5.52204 5.82943 5.43471 5.74226L1.04646 1.35376C0.952789 1.26026 0.901789 1.14651 0.893456 1.01251C0.885123 0.878511 0.936122 0.756427 1.04646 0.64626C1.15279 0.53976 1.27071 0.486511 1.40021 0.486511C1.52971 0.486511 1.64762 0.53976 1.75396 0.64626L6.00021 4.88651Z" fill="#FE62C4"/>
</svg>
