<svg width="24" height="25" viewBox="0 0 24 25" fill="none" xmlns="http://www.w3.org/2000/svg">
<g clip-path="url(#clip0_326_590)">
<path d="M13.4141 12.0119L13.133 14.4926C13.118 14.6241 13.1533 14.7385 13.2391 14.8357C13.3247 14.9331 13.4333 14.9892 13.5648 15.0039C13.6963 15.019 13.816 14.9835 13.924 14.8975C14.0319 14.8116 14.0917 14.7041 14.1032 14.5752L14.4808 11.2461C14.5066 11.0189 14.4524 10.8211 14.3183 10.6527C14.1841 10.4842 14.0035 10.3871 13.7763 10.3614L10.4201 9.98101C10.2886 9.96598 10.1722 9.9988 10.0709 10.0795C9.96961 10.1601 9.91156 10.2662 9.89677 10.3978C9.88174 10.5292 9.91721 10.649 10.0032 10.7569C10.0892 10.865 10.1967 10.9247 10.3255 10.9362L12.7912 11.2296L9.34018 13.9777C9.22936 14.0659 9.16636 14.1775 9.1512 14.3123C9.13603 14.4471 9.17263 14.5699 9.26098 14.6809C9.34934 14.7918 9.46074 14.8548 9.5952 14.8698C9.72966 14.8848 9.8523 14.8482 9.96312 14.76L13.4141 12.0119ZM17.6075 19.5384C16.6339 20.3136 15.5715 20.8578 14.4202 21.1708C13.269 21.4838 12.1241 21.576 10.9857 21.4475C9.84734 21.319 8.7523 20.9739 7.70064 20.412C6.64894 19.8503 5.73542 19.0827 4.96006 18.109C4.18481 17.1355 3.64066 16.0731 3.32762 14.9217C3.01468 13.7705 2.92245 12.6257 3.05093 11.4873C3.17941 10.3489 3.52459 9.25385 4.08647 8.20219C4.64812 7.1505 5.41577 6.23697 6.38943 5.46162C7.36297 4.68637 8.4254 4.14222 9.57674 3.82917C10.728 3.51623 11.8728 3.424 13.0112 3.55248C14.1496 3.68096 15.2446 4.02615 16.2963 4.58802C17.348 5.14967 18.2615 5.91732 19.0368 6.89099C19.8121 7.86452 20.3562 8.92696 20.6693 10.0783C20.9822 11.2295 21.0745 12.3743 20.946 13.5127C20.8175 14.6511 20.4723 15.7462 19.9104 16.7978C19.3488 17.8495 18.5811 18.763 17.6075 19.5384ZM16.982 18.7581C18.7291 17.3669 19.7261 15.5823 19.973 13.4042C20.22 11.2261 19.6478 9.26353 18.2566 7.51647C16.8654 5.7694 15.0807 4.77239 12.9026 4.52544C10.7246 4.27848 8.76198 4.85062 7.01492 6.24186C5.26785 7.6331 4.27084 9.41775 4.02389 11.5958C3.77693 13.7739 4.34907 15.7365 5.74031 17.4835C7.13155 19.2306 8.9162 20.2276 11.0943 20.4746C13.2724 20.7215 15.2349 20.1494 16.982 18.7581Z" fill="#F5E0FF"/>
</g>
<defs>
<clipPath id="clip0_326_590">
<rect width="24" height="24" fill="white" transform="translate(0 0.5)"/>
</clipPath>
</defs>
</svg>
