<svg width="50" height="51" viewBox="0 0 50 51" fill="none" xmlns="http://www.w3.org/2000/svg">
<path d="M25 6.38916V8.47249M25 41.8058V43.8892M43.75 25.1392H41.6667M8.33333 25.1392H6.25M38.2583 38.3975L36.7854 36.9246M13.2146 13.3537L11.7417 11.8808M38.2583 11.8808L36.7854 13.3537M13.2146 36.9246L11.7417 38.3975M33.3333 25.1392C33.3333 27.3493 32.4554 29.4689 30.8926 31.0317C29.3298 32.5945 27.2101 33.4725 25 33.4725C22.7899 33.4725 20.6702 32.5945 19.1074 31.0317C17.5446 29.4689 16.6667 27.3493 16.6667 25.1392C16.6667 22.929 17.5446 20.8094 19.1074 19.2466C20.6702 17.6838 22.7899 16.8058 25 16.8058C27.2101 16.8058 29.3298 17.6838 30.8926 19.2466C32.4554 20.8094 33.3333 22.929 33.3333 25.1392Z" stroke="#FE62C4" stroke-width="3" stroke-linecap="round" stroke-linejoin="round"/>
</svg>
