<svg width="51" height="51" viewBox="0 0 51 51" fill="none" xmlns="http://www.w3.org/2000/svg">
<path d="M37.834 18.8892V25.1392M37.834 25.1392V31.3892M37.834 25.1392H44.084M37.834 25.1392H31.584M27.4173 14.7225C27.4173 16.9326 26.5393 19.0522 24.9765 20.615C23.4137 22.1779 21.2941 23.0558 19.084 23.0558C16.8738 23.0558 14.7542 22.1779 13.1914 20.615C11.6286 19.0522 10.7507 16.9326 10.7507 14.7225C10.7507 12.5124 11.6286 10.3927 13.1914 8.82994C14.7542 7.26713 16.8738 6.38916 19.084 6.38916C21.2941 6.38916 23.4137 7.26713 24.9765 8.82994C26.5393 10.3927 27.4173 12.5124 27.4173 14.7225ZM6.58398 41.8058C6.58398 38.4906 7.90095 35.3112 10.2451 32.967C12.5894 30.6228 15.7688 29.3058 19.084 29.3058C22.3992 29.3058 25.5786 30.6228 27.9228 32.967C30.267 35.3112 31.584 38.4906 31.584 41.8058V43.8892H6.58398V41.8058Z" stroke="#FE62C4" stroke-width="3" stroke-linecap="round" stroke-linejoin="round"/>
</svg>
