<svg width="18" height="18" viewBox="0 0 18 18" fill="none" xmlns="http://www.w3.org/2000/svg">
<path d="M10.416 8.51186L10.135 10.9926C10.1199 11.1241 10.1553 11.2385 10.241 11.3357C10.3267 11.4331 10.4352 11.4892 10.5668 11.5039C10.6983 11.519 10.818 11.4835 10.9259 11.3975C11.0339 11.3116 11.0936 11.2041 11.1052 11.0752L11.4828 7.74611C11.5086 7.51893 11.4544 7.32112 11.3202 7.15267C11.1861 6.98422 11.0054 6.88712 10.7782 6.86136L7.42206 6.48101C7.29057 6.46598 7.17417 6.4988 7.07287 6.57947C6.97156 6.66014 6.91352 6.76624 6.89872 6.89775C6.88369 7.02925 6.91916 7.14897 7.00513 7.25692C7.0912 7.365 7.19864 7.42475 7.32746 7.43615L9.79311 7.72959L6.34213 10.4777C6.23131 10.5659 6.16832 10.6775 6.15315 10.8123C6.13799 10.9471 6.17458 11.0699 6.26293 11.1809C6.35129 11.2918 6.46269 11.3548 6.59715 11.3698C6.73161 11.3848 6.85425 11.3482 6.96507 11.26L10.416 8.51186ZM14.6094 16.0384C13.6359 16.8136 12.5735 17.3578 11.4221 17.6708C10.2709 17.9838 9.1261 18.076 7.98769 17.9475C6.84929 17.819 5.75426 17.4739 4.70259 16.912C3.6509 16.3503 2.73737 15.5827 1.96202 14.609C1.18677 13.6355 0.642618 12.5731 0.329572 11.4217C0.0166307 10.2705 -0.075599 9.1257 0.0528829 7.98729C0.181365 6.84889 0.526545 5.75385 1.08842 4.70219C1.65007 3.6505 2.41772 2.73697 3.39139 1.96162C4.36492 1.18637 5.42736 0.642218 6.5787 0.329172C7.72991 0.0162305 8.87472 -0.0759994 10.0131 0.0524825C11.1515 0.180964 12.2466 0.526145 13.2982 1.08802C14.3499 1.64967 15.2634 2.41732 16.0388 3.39098C16.814 4.36452 17.3582 5.42695 17.6712 6.5783C17.9842 7.72951 18.0764 8.87431 17.9479 10.0127C17.8194 11.1511 17.4743 12.2462 16.9124 13.2978C16.3507 14.3495 15.5831 15.263 14.6094 16.0384ZM13.9839 15.2581C15.731 13.8669 16.728 12.0823 16.975 9.90418C17.2219 7.72611 16.6498 5.76353 15.2586 4.01647C13.8673 2.2694 12.0827 1.27239 9.90458 1.02544C7.72651 0.778483 5.76394 1.35062 4.01687 2.74186C2.2698 4.1331 1.27279 5.91775 1.02584 8.09583C0.778884 10.2739 1.35102 12.2365 2.74226 13.9835C4.1335 15.7306 5.91815 16.7276 8.09623 16.9746C10.2743 17.2215 12.2369 16.6494 13.9839 15.2581Z" fill="#FE62C4"/>
</svg>
